<?xml version="1.0" encoding="UTF-8"?>
<svg xmlns="http://www.w3.org/2000/svg" xmlns:xlink="http://www.w3.org/1999/xlink" width="16pt" height="16pt" viewBox="0 0 16 16" version="1.1">
<g id="surface1">
<path style=" stroke:none;fill-rule:nonzero;fill:rgb(49.411765%,49.411765%,49.411765%);fill-opacity:1;" d="M 8 0 C 3.578125 0 0 3.578125 0 8 C 0 12.421875 3.578125 16 8 16 C 12.421875 16 16 12.421875 16 8 C 16 3.578125 12.421875 0 8 0 Z M 8 14.75 C 4.269531 14.75 1.25 11.730469 1.25 8 C 1.25 4.269531 4.269531 1.25 8 1.25 C 11.730469 1.25 14.75 4.269531 14.75 8 C 14.75 11.730469 11.730469 14.75 8 14.75 Z M 8 14.75 "/>
<path style=" stroke:none;fill-rule:nonzero;fill:rgb(49.411765%,49.411765%,49.411765%);fill-opacity:1;" d="M 10.738281 9.851562 L 8.882812 8 L 10.738281 6.148438 C 10.980469 5.902344 10.980469 5.507812 10.738281 5.261719 C 10.492188 5.019531 10.097656 5.019531 9.851562 5.261719 L 8 7.117188 L 6.148438 5.261719 C 5.902344 5.019531 5.507812 5.019531 5.261719 5.261719 C 5.019531 5.507812 5.019531 5.902344 5.261719 6.148438 L 7.117188 8 L 5.261719 9.851562 C 5.019531 10.097656 5.019531 10.492188 5.261719 10.738281 C 5.507812 10.980469 5.902344 10.980469 6.148438 10.738281 L 8 8.882812 L 9.851562 10.738281 C 10.097656 10.980469 10.492188 10.980469 10.738281 10.738281 C 10.980469 10.492188 10.980469 10.097656 10.738281 9.851562 Z M 10.738281 9.851562 "/>
</g>
</svg>
