<?xml version="1.0" encoding="UTF-8"?>
<svg xmlns="http://www.w3.org/2000/svg" xmlns:xlink="http://www.w3.org/1999/xlink" width="18pt" height="18pt" viewBox="0 0 18 18" version="1.1">
<g id="surface1">
<path style=" stroke:none;fill-rule:nonzero;fill:rgb(100%,100%,100%);fill-opacity:1;" d="M 2.636719 18 L 8.507812 18 L 8.507812 11.601562 L 6.398438 11.601562 L 6.398438 9.492188 L 8.507812 9.492188 L 8.507812 6.855469 C 8.507812 5.402344 9.691406 4.21875 11.144531 4.21875 L 13.78125 4.21875 L 13.78125 6.328125 L 11.671875 6.328125 C 11.089844 6.328125 10.617188 6.800781 10.617188 7.382812 L 10.617188 9.492188 L 13.6875 9.492188 L 13.335938 11.601562 L 10.617188 11.601562 L 10.617188 18 L 15.363281 18 C 16.816406 18 18 16.816406 18 15.363281 L 18 2.636719 C 18 1.183594 16.816406 0 15.363281 0 L 2.636719 0 C 1.183594 0 0 1.183594 0 2.636719 L 0 15.363281 C 0 16.816406 1.183594 18 2.636719 18 Z M 1.054688 2.636719 C 1.054688 1.765625 1.765625 1.054688 2.636719 1.054688 L 15.363281 1.054688 C 16.234375 1.054688 16.945312 1.765625 16.945312 2.636719 L 16.945312 15.363281 C 16.945312 16.234375 16.234375 16.945312 15.363281 16.945312 L 11.671875 16.945312 L 11.671875 12.65625 L 14.226562 12.65625 L 14.929688 8.4375 L 11.671875 8.4375 L 11.671875 7.382812 L 14.835938 7.382812 L 14.835938 3.164062 L 11.144531 3.164062 C 9.109375 3.164062 7.453125 4.820312 7.453125 6.855469 L 7.453125 8.4375 L 5.34375 8.4375 L 5.34375 12.65625 L 7.453125 12.65625 L 7.453125 16.945312 L 2.636719 16.945312 C 1.765625 16.945312 1.054688 16.234375 1.054688 15.363281 Z M 1.054688 2.636719 "/>
</g>
</svg>
