<?xml version="1.0" encoding="UTF-8"?>
<svg xmlns="http://www.w3.org/2000/svg" xmlns:xlink="http://www.w3.org/1999/xlink" width="18pt" height="18pt" viewBox="0 0 18 18" version="1.1">
<g id="surface1">
<path style=" stroke:none;fill-rule:nonzero;fill:rgb(100%,100%,100%);fill-opacity:1;" d="M 2.636719 18 L 15.363281 18 C 16.816406 18 18 16.816406 18 15.363281 L 18 2.636719 C 18 1.183594 16.816406 0 15.363281 0 L 2.636719 0 C 1.183594 0 0 1.183594 0 2.636719 L 0 15.363281 C 0 16.816406 1.183594 18 2.636719 18 Z M 1.054688 2.636719 C 1.054688 1.765625 1.765625 1.054688 2.636719 1.054688 L 15.363281 1.054688 C 16.234375 1.054688 16.945312 1.765625 16.945312 2.636719 L 16.945312 15.363281 C 16.945312 16.234375 16.234375 16.945312 15.363281 16.945312 L 2.636719 16.945312 C 1.765625 16.945312 1.054688 16.234375 1.054688 15.363281 Z M 1.054688 2.636719 "/>
<path style=" stroke:none;fill-rule:nonzero;fill:rgb(100%,100%,100%);fill-opacity:1;" d="M 9 13.746094 C 11.617188 13.746094 13.746094 11.617188 13.746094 9 C 13.746094 6.382812 11.617188 4.253906 9 4.253906 C 6.382812 4.253906 4.253906 6.382812 4.253906 9 C 4.253906 11.617188 6.382812 13.746094 9 13.746094 Z M 9 5.308594 C 11.035156 5.308594 12.691406 6.964844 12.691406 9 C 12.691406 11.035156 11.035156 12.691406 9 12.691406 C 6.964844 12.691406 5.308594 11.035156 5.308594 9 C 5.308594 6.964844 6.964844 5.308594 9 5.308594 Z M 9 5.308594 "/>
<path style=" stroke:none;fill-rule:nonzero;fill:rgb(100%,100%,100%);fill-opacity:1;" d="M 14.273438 5.308594 C 15.144531 5.308594 15.855469 4.597656 15.855469 3.726562 C 15.855469 2.855469 15.144531 2.144531 14.273438 2.144531 C 13.402344 2.144531 12.691406 2.855469 12.691406 3.726562 C 12.691406 4.597656 13.402344 5.308594 14.273438 5.308594 Z M 14.273438 3.199219 C 14.5625 3.199219 14.800781 3.4375 14.800781 3.726562 C 14.800781 4.015625 14.5625 4.253906 14.273438 4.253906 C 13.984375 4.253906 13.746094 4.015625 13.746094 3.726562 C 13.746094 3.4375 13.984375 3.199219 14.273438 3.199219 Z M 14.273438 3.199219 "/>
</g>
</svg>
