<?xml version="1.0" encoding="UTF-8"?>
<svg xmlns="http://www.w3.org/2000/svg" xmlns:xlink="http://www.w3.org/1999/xlink" width="16pt" height="16pt" viewBox="0 0 16 16" version="1.1">
<g id="surface1">
<path style=" stroke:none;fill-rule:nonzero;fill:rgb(34.509804%,34.509804%,34.509804%);fill-opacity:1;" d="M 15.144531 5.796875 L 3.644531 5.796875 C 3.371094 5.773438 3.101562 5.753906 2.828125 5.746094 C 2.324219 5.726562 1.820312 5.742188 1.316406 5.742188 C 1.125 5.742188 0.941406 5.757812 0.765625 5.804688 C 0.335938 5.847656 0 6.214844 0 6.65625 C 0 7.128906 0.386719 7.511719 0.855469 7.511719 L 15.144531 7.511719 C 15.613281 7.511719 16 7.128906 16 6.65625 C 16 6.183594 15.613281 5.796875 15.144531 5.796875 Z M 0.855469 7.339844 C 0.652344 7.339844 0.46875 7.25 0.34375 7.105469 C 0.484375 7.230469 0.679688 7.300781 0.875 7.339844 Z M 6.496094 7.253906 C 6.5 7.289062 6.511719 7.316406 6.523438 7.339844 L 6.160156 7.339844 C 6.199219 7.019531 6.203125 6.6875 6.15625 6.363281 C 6.167969 6.257812 6.179688 6.15625 6.195312 6.050781 C 6.199219 6.015625 6.1875 5.992188 6.167969 5.972656 L 6.527344 5.972656 C 6.527344 6.394531 6.445312 6.832031 6.496094 7.253906 Z M 6.664062 6.769531 C 6.671875 6.671875 6.675781 6.574219 6.683594 6.476562 C 6.6875 6.550781 6.691406 6.621094 6.691406 6.695312 C 6.691406 6.890625 6.675781 7.085938 6.722656 7.277344 C 6.605469 7.234375 6.660156 6.839844 6.664062 6.769531 Z M 7.648438 7.339844 L 7.28125 7.339844 C 7.285156 7.335938 7.285156 7.328125 7.289062 7.324219 C 7.351562 7.109375 7.359375 6.871094 7.351562 6.632812 C 7.351562 6.628906 7.351562 6.625 7.355469 6.621094 C 7.386719 6.40625 7.394531 6.1875 7.394531 5.972656 L 7.675781 5.972656 C 7.671875 6.429688 7.648438 6.882812 7.648438 7.339844 Z M 15.144531 7.339844 L 8.109375 7.339844 C 8.105469 7.324219 8.097656 7.308594 8.085938 7.292969 C 8.042969 7.238281 8.035156 7.136719 8.039062 7.027344 C 8.0625 6.695312 8.109375 6.125 8.085938 5.972656 L 15.144531 5.972656 C 15.519531 5.972656 15.828125 6.277344 15.828125 6.65625 C 15.828125 7.035156 15.519531 7.339844 15.144531 7.339844 Z M 15.144531 7.339844 "/>
<path style=" stroke:none;fill-rule:nonzero;fill:rgb(34.509804%,34.509804%,34.509804%);fill-opacity:1;" d="M 1.027344 9.925781 C 1.023438 9.949219 1.019531 9.96875 1.023438 9.992188 C 1.050781 10.171875 0.820312 10.113281 0.71875 10.109375 C 0.605469 10.105469 0.367188 10.140625 0.328125 10.007812 C 0.273438 9.851562 0.300781 9.648438 0.304688 9.484375 C 0.3125 9.195312 0.292969 8.890625 0.25 8.601562 C 0.234375 8.5 0.0820312 8.542969 0.0976562 8.644531 C 0.160156 9.085938 0.105469 9.535156 0.160156 9.976562 C 0.183594 10.1875 0.203125 10.25 0.402344 10.253906 C 0.816406 10.265625 1.257812 10.320312 1.144531 9.90625 C 1.136719 9.878906 1.035156 9.929688 1.027344 9.925781 Z M 1.027344 9.925781 "/>
<path style=" stroke:none;fill-rule:nonzero;fill:rgb(34.509804%,34.509804%,34.509804%);fill-opacity:1;" d="M 1.53125 8.617188 C 1.375 8.707031 1.390625 9.019531 1.394531 9.191406 C 1.394531 9.421875 1.367188 9.652344 1.40625 9.878906 C 1.460938 10.1875 1.84375 10.292969 2.066406 10.089844 C 2.390625 9.796875 2.304688 9.277344 2.179688 8.90625 C 2.09375 8.640625 1.949219 8.386719 1.53125 8.617188 Z M 1.917969 10 C 1.554688 10.25 1.542969 9.640625 1.550781 9.445312 C 1.558594 9.265625 1.515625 8.824219 1.632812 8.734375 C 1.96875 8.480469 2.050781 9.011719 2.09375 9.183594 C 2.160156 9.453125 2.171875 9.828125 1.917969 10 Z M 1.917969 10 "/>
<path style=" stroke:none;fill-rule:nonzero;fill:rgb(34.509804%,34.509804%,34.509804%);fill-opacity:1;" d="M 3.199219 8.507812 C 3.164062 8.441406 3.078125 8.460938 3.054688 8.511719 C 3.039062 8.523438 2.710938 9.804688 2.671875 10.054688 C 2.65625 10.152344 2.816406 10.164062 2.832031 10.066406 C 2.855469 9.914062 2.882812 9.757812 2.914062 9.601562 C 3.082031 9.601562 3.25 9.609375 3.414062 9.605469 C 3.46875 9.777344 3.527344 9.945312 3.605469 10.109375 C 3.648438 10.199219 3.789062 10.132812 3.746094 10.042969 C 3.511719 9.550781 3.449219 8.992188 3.199219 8.507812 Z M 2.949219 9.453125 C 2.960938 9.386719 2.976562 9.324219 2.996094 9.261719 C 3.039062 9.097656 3.101562 8.933594 3.144531 8.765625 C 3.238281 8.988281 3.300781 9.222656 3.371094 9.457031 C 3.230469 9.457031 3.089844 9.449219 2.949219 9.453125 Z M 2.949219 9.453125 "/>
<path style=" stroke:none;fill-rule:nonzero;fill:rgb(34.509804%,34.509804%,34.509804%);fill-opacity:1;" d="M 4.871094 8.566406 C 4.695312 8.402344 4.382812 8.410156 4.15625 8.4375 C 4.058594 8.445312 4.078125 8.566406 4.082031 8.597656 C 4.105469 9.082031 4.105469 9.570312 4.140625 10.054688 C 4.144531 10.089844 4.167969 10.113281 4.195312 10.121094 C 4.214844 10.136719 4.238281 10.148438 4.269531 10.144531 C 4.820312 10.054688 5.257812 9.800781 5.144531 9.207031 C 5.101562 8.96875 5.054688 8.738281 4.871094 8.566406 Z M 4.296875 9.984375 C 4.265625 9.523438 4.261719 9.054688 4.238281 8.59375 C 4.238281 8.585938 4.238281 8.582031 4.234375 8.578125 C 4.46875 8.546875 4.714844 8.585938 4.855469 8.785156 C 4.953125 8.917969 4.980469 9.160156 5 9.3125 C 5.054688 9.761719 4.675781 9.917969 4.296875 9.984375 Z M 4.296875 9.984375 "/>
<path style=" stroke:none;fill-rule:nonzero;fill:rgb(34.509804%,34.509804%,34.509804%);fill-opacity:1;" d="M 5.664062 8.441406 C 5.597656 8.671875 5.617188 9.785156 5.621094 10.109375 C 5.625 10.214844 5.78125 10.210938 5.78125 10.109375 C 5.777344 9.851562 5.734375 8.765625 5.816406 8.480469 C 5.847656 8.382812 5.695312 8.34375 5.664062 8.441406 Z M 5.664062 8.441406 "/>
<path style=" stroke:none;fill-rule:nonzero;fill:rgb(34.509804%,34.509804%,34.509804%);fill-opacity:1;" d="M 7.371094 8.410156 C 7.371094 8.316406 7.214844 8.316406 7.210938 8.410156 C 7.203125 8.65625 7.25 9.585938 7.210938 9.820312 C 7.179688 10.011719 6.90625 8.84375 6.542969 8.425781 C 6.445312 8.3125 6.371094 8.449219 6.371094 8.449219 C 6.371094 8.90625 6.394531 9.539062 6.386719 10.089844 C 6.386719 10.183594 6.542969 10.183594 6.546875 10.089844 C 6.554688 9.660156 6.601562 9.203125 6.570312 8.78125 C 6.75 9.15625 6.964844 9.691406 7.121094 10.078125 C 7.144531 10.128906 7.207031 10.144531 7.253906 10.105469 C 7.429688 9.964844 7.359375 8.75 7.371094 8.410156 Z M 7.371094 8.410156 "/>
<path style=" stroke:none;fill-rule:nonzero;fill:rgb(34.509804%,34.509804%,34.509804%);fill-opacity:1;" d="M 8.554688 9.292969 C 8.453125 9.292969 8.453125 9.433594 8.554688 9.433594 C 8.84375 9.433594 8.742188 9.914062 8.5625 9.976562 C 8.410156 10.03125 8.207031 9.996094 8.0625 9.933594 C 7.890625 9.859375 7.90625 9.542969 7.90625 9.40625 C 7.902344 9.179688 8.003906 8.269531 8.464844 8.535156 C 8.480469 8.542969 8.585938 8.617188 8.609375 8.660156 C 8.625 8.695312 8.660156 8.71875 8.707031 8.707031 C 8.746094 8.699219 8.777344 8.65625 8.761719 8.621094 C 8.722656 8.539062 8.550781 8.402344 8.527344 8.40625 C 7.777344 7.992188 7.699219 9.472656 7.796875 9.8125 C 7.898438 10.15625 8.425781 10.226562 8.734375 10.054688 C 9.019531 9.894531 8.929688 9.292969 8.554688 9.292969 Z M 8.554688 9.292969 "/>
</g>
</svg>
