<?xml version="1.0" encoding="UTF-8"?>
<svg xmlns="http://www.w3.org/2000/svg" xmlns:xlink="http://www.w3.org/1999/xlink" width="18pt" height="18pt" viewBox="0 0 18 18" version="1.1">
<g id="surface1">
<path style=" stroke:none;fill-rule:nonzero;fill:rgb(100%,100%,100%);fill-opacity:1;" d="M 18 1.96875 C 16.867188 2.019531 16.890625 2.015625 16.765625 2.027344 L 17.433594 0.109375 C 17.433594 0.109375 15.34375 0.882812 14.8125 1.019531 C 13.417969 -0.234375 11.347656 -0.289062 9.863281 0.621094 C 8.652344 1.367188 8 2.648438 8.21875 4.144531 C 5.859375 3.816406 3.871094 2.695312 2.300781 0.8125 L 1.804688 0.214844 L 1.433594 0.894531 C 0.964844 1.757812 0.808594 2.742188 0.992188 3.667969 C 1.070312 4.046875 1.199219 4.410156 1.378906 4.75 L 0.953125 4.585938 L 0.902344 5.296875 C 0.851562 6.019531 1.09375 6.863281 1.546875 7.554688 C 1.675781 7.75 1.839844 7.960938 2.046875 8.171875 L 1.828125 8.140625 L 2.097656 8.957031 C 2.449219 10.027344 3.183594 10.855469 4.136719 11.316406 C 3.183594 11.71875 2.417969 11.976562 1.15625 12.390625 L 0 12.773438 L 1.066406 13.355469 C 1.472656 13.578125 2.910156 14.320312 4.328125 14.542969 C 7.484375 15.039062 11.039062 14.632812 13.429688 12.480469 C 15.445312 10.664062 16.105469 8.085938 15.96875 5.398438 C 15.949219 4.992188 16.058594 4.605469 16.28125 4.304688 C 16.730469 3.710938 17.996094 1.972656 18 1.96875 Z M 15.441406 3.675781 C 15.070312 4.167969 14.882812 4.800781 14.917969 5.453125 C 15.054688 8.160156 14.316406 10.261719 12.726562 11.699219 C 10.863281 13.371094 7.863281 14.03125 4.492188 13.5 C 3.882812 13.40625 3.25 13.191406 2.730469 12.976562 C 3.789062 12.613281 4.605469 12.289062 5.925781 11.664062 L 7.765625 10.792969 L 5.730469 10.664062 C 4.757812 10.601562 3.945312 10.128906 3.449219 9.359375 C 3.714844 9.347656 3.96875 9.304688 4.222656 9.230469 L 6.164062 8.691406 L 4.207031 8.210938 C 3.253906 7.980469 2.714844 7.410156 2.425781 6.976562 C 2.238281 6.6875 2.113281 6.394531 2.042969 6.125 C 2.238281 6.175781 2.464844 6.214844 2.835938 6.25 L 4.644531 6.429688 L 3.210938 5.3125 C 2.175781 4.503906 1.761719 3.292969 2.066406 2.128906 C 5.292969 5.476562 9.078125 5.222656 9.460938 5.3125 C 9.375 4.496094 9.375 4.496094 9.351562 4.417969 C 8.863281 2.691406 9.933594 1.816406 10.417969 1.519531 C 11.425781 0.898438 13.023438 0.804688 14.132812 1.828125 C 14.371094 2.046875 14.695312 2.132812 15 2.058594 C 15.269531 1.992188 15.496094 1.917969 15.710938 1.839844 L 15.257812 3.140625 L 15.839844 3.140625 C 15.730469 3.289062 15.597656 3.464844 15.441406 3.675781 Z M 15.441406 3.675781 "/>
</g>
</svg>
