<?xml version="1.0" encoding="UTF-8"?>
<svg xmlns="http://www.w3.org/2000/svg" xmlns:xlink="http://www.w3.org/1999/xlink" width="18pt" height="18pt" viewBox="0 0 18 18" version="1.1">
<g id="surface1">
<path style=" stroke:none;fill-rule:nonzero;fill:rgb(100%,100%,100%);fill-opacity:1;" d="M 2.636719 13.710938 L 15.363281 13.710938 C 16.816406 13.710938 18 12.527344 18 11.074219 L 18 2.636719 C 18 1.183594 16.816406 0 15.363281 0 L 2.636719 0 C 1.183594 0 0 1.183594 0 2.636719 L 0 11.074219 C 0 12.527344 1.183594 13.710938 2.636719 13.710938 Z M 1.054688 2.636719 C 1.054688 1.765625 1.765625 1.054688 2.636719 1.054688 L 15.363281 1.054688 C 16.234375 1.054688 16.945312 1.765625 16.945312 2.636719 L 16.945312 11.074219 C 16.945312 11.945312 16.234375 12.65625 15.363281 12.65625 L 2.636719 12.65625 C 1.765625 12.65625 1.054688 11.945312 1.054688 11.074219 Z M 1.054688 2.636719 "/>
<path style=" stroke:none;fill-rule:nonzero;fill:rgb(100%,100%,100%);fill-opacity:1;" d="M 6.363281 3.324219 L 6.363281 10.492188 L 12.710938 6.847656 Z M 7.417969 5.113281 L 10.5625 6.863281 L 7.417969 8.667969 Z M 7.417969 5.113281 "/>
</g>
</svg>
